<?xml version="1.0" standalone="no"?>
<!DOCTYPE svg PUBLIC "-//W3C//DTD SVG 20010904//EN" "http://www.w3.org/TR/2001/REC-SVG-20010904/DTD/svg10.dtd">
<svg version="1.0" xmlns="http://www.w3.org/2000/svg" width="1100.000000pt" height="1100.000000pt" viewBox="0 0 1100.000000 1100.000000" preserveAspectRatio="xMidYMid meet">

  <g transform="translate(0.000000,1100.000000) scale(0.100000,-0.100000)" fill="#000000" stroke="none">
    <path d="M3675 8623 c-762 -21 -1506 -309 -2080 -804 -87 -74 -307 -294 -373
-371 -17 -21 -39 -38 -48 -38 -8 0 -34 15 -57 34 -84 68 -210 116 -305 116
-113 0 -249 -54 -364 -145 -249 -195 -319 -543 -171 -844 47 -95 162 -216 240
-252 61 -28 62 -32 32 -139 -57 -208 -94 -432 -110 -683 -10 -146 -13 -163
-44 -230 -108 -235 -158 -513 -158 -877 0 -379 52 -710 164 -1045 52 -157 191
-435 276 -555 91 -127 293 -329 411 -409 110 -74 282 -159 407 -199 387 -126
904 -123 1297 9 l118 39 1317 0 1318 0 94 -30 c111 -35 298 -74 431 -90 140
-17 996 -25 1223 -11 310 19 509 63 645 142 83 49 180 151 225 237 30 56 43
72 60 72 36 0 309 66 433 105 240 75 520 202 700 318 l69 44 150 7 c213 10
362 24 502 47 170 28 252 52 370 109 82 40 116 64 170 118 241 241 252 656 28
1008 -43 67 -145 175 -220 233 -33 25 -101 67 -152 93 -81 40 -99 54 -139 107
-87 115 -198 200 -338 257 l-81 32 -7 99 c-35 499 -227 993 -535 1376 -171
213 -415 432 -625 563 -46 28 -48 30 -41 64 12 57 7 190 -11 260 -46 183 -176
351 -326 423 -96 45 -196 67 -309 67 -171 0 -342 -51 -467 -139 -77 -54 -184
-163 -229 -233 -34 -52 -50 -58 -151 -58 l-63 0 -33 62 c-50 94 -127 172 -212
214 -153 75 -286 67 -474 -27 l-102 -51 -68 63 c-640 604 -1510 936 -2387 912z
m320 -203 c610 -45 1178 -259 1668 -626 133 -100 317 -260 317 -275 0 -6 -11
-25 -24 -42 -60 -80 -117 -237 -136 -378 -7 -46 -12 -158 -13 -249 0 -192 13
-265 70 -372 99 -188 307 -257 487 -160 65 35 98 76 186 233 71 127 83 142
229 289 174 175 207 227 218 343 l6 66 56 7 c30 4 132 4 226 1 612 -21 1162
-266 1590 -708 173 -179 309 -372 414 -589 45 -94 46 -96 46 -195 -1 -91 -5
-112 -44 -230 -37 -111 -44 -145 -49 -236 -6 -137 11 -192 81 -266 60 -64 95
-85 262 -157 201 -87 247 -111 293 -150 146 -121 232 -311 232 -510 0 -188
-84 -380 -256 -588 -278 -333 -927 -704 -1476 -843 -53 -14 -103 -25 -111 -25
-11 0 -15 24 -20 103 -24 403 -280 738 -662 866 -179 59 -397 86 -833 101
-402 14 -635 40 -781 90 -321 108 -660 427 -831 784 -97 202 -131 338 -185
741 -38 282 -61 387 -99 462 -72 142 -234 196 -384 128 -100 -45 -195 -153
-271 -308 -199 -407 -238 -913 -120 -1537 151 -790 506 -1394 1029 -1752 24
-16 -13 -17 -665 -17 -379 -1 -801 2 -937 6 l-247 6 92 97 c144 150 234 300
296 494 115 358 65 760 -129 1047 -63 91 -187 200 -284 248 -173 86 -407 104
-646 48 -58 -14 -108 -22 -112 -19 -12 13 -138 448 -217 753 -69 265 -185 453
-372 603 -168 134 -372 206 -584 206 -209 0 -397 -65 -574 -197 l-83 -63 7 62
c16 144 71 393 124 553 112 346 298 690 532 985 107 135 355 384 488 489 630
499 1404 739 2196 681z m-919 -4741 c99 -14 171 -46 235 -105 214 -201 178
-560 -89 -859 -245 -275 -741 -482 -1042 -436 -188 29 -301 138 -332 320 -10
58 -9 85 4 158 54 305 319 615 683 798 162 81 275 114 452 134 6 0 46 -4 89
-10z" />
    <path d="M8045 5749 c-166 -22 -326 -81 -451 -167 -75 -51 -200 -180 -249
-256 -55 -87 -120 -229 -147 -321 -20 -70 -23 -101 -22 -245 1 -149 3 -174 27
-253 98 -320 331 -517 612 -517 89 0 177 19 285 61 114 43 193 121 264 259
109 212 203 327 376 458 119 91 164 146 192 236 85 279 -198 638 -574 726
-104 24 -223 31 -313 19z" />
    <path d="M9675 4525 c-127 -28 -230 -83 -282 -152 -24 -31 -28 -46 -28 -97 0
-80 31 -142 110 -221 87 -86 152 -119 237 -120 63 0 69 2 102 35 84 80 166
268 166 377 0 159 -107 221 -305 178z" />
  </g>
</svg>
